<?xml version="1.0" encoding="utf-8"?>
<!-- Generator: Adobe Illustrator 18.1.1, SVG Export Plug-In . SVG Version: 6.00 Build 0)  -->
<svg version="1.1" id="Layer_1" xmlns="http://www.w3.org/2000/svg" xmlns:xlink="http://www.w3.org/1999/xlink" x="0px" y="0px"
	 viewBox="0 0 270 122.8" enable-background="new 0 0 270 122.8" xml:space="preserve">
<g>
	<defs>
		<rect id="SVGID_1_" y="0" width="270" height="122.8"/>
	</defs>
	<clipPath id="SVGID_2_">
		<use xlink:href="#SVGID_1_"  overflow="visible"/>
	</clipPath>
	<g clip-path="url(#SVGID_2_)">
		<polygon fill="#D31600" points="110.5,98.2 110.5,98.2 110.4,98.2 		"/>
		<path fill="#D31600" d="M251.7,98.2v-43h-24.6v43h-18.5V24.6h-24.6v73.7h-18.5V24.6h-24.6v73.7h-30.6c0,0,0,0,0,0l-0.1,0h0.1
			c17.1-22.8,16.3-54.3-2-76.2C90.3,0.2,59.4-6.2,34,6.5C8.5,19.2-4.9,47.8,1.6,75.5c6.5,27.7,31.3,47.3,59.7,47.3H270V98.2H251.7z
			 M61.4,98.2L61.4,98.2c-20.4,0-36.8-16.5-36.8-36.8c0-20.3,16.5-36.8,36.8-36.8c20.3,0,36.8,16.5,36.8,36.8
			C98.2,81.7,81.7,98.2,61.4,98.2z"/>
		<rect x="227.1" y="24.6" fill="#D31600" width="24.6" height="24.6"/>
	</g>
</g>
</svg>
